Coordinates
version=1
nRows=5
nColumns=40
inDegrees=yes

Units are S.I. units (second, meters, Newtons, ...)
If the header above contains a line with 'inDegrees', this indicates whether rotational values are in degrees (yes) or radians (no).

endheader
time	pelvis_tilt	pelvis_list	pelvis_rotation	pelvis_tx	pelvis_ty	pelvis_tz	hip_flexion_r	hip_adduction_r	hip_rotation_r	knee_angle_r	knee_angle_r_beta	ankle_angle_r	subtalar_angle_r	mtp_angle_r	hip_flexion_l	hip_adduction_l	hip_rotation_l	knee_angle_l	knee_angle_l_beta	ankle_angle_l	subtalar_angle_l	mtp_angle_l	lumbar_extension	lumbar_bending	lumbar_rotation	arm_flex_r	arm_add_r	arm_rot_r	elbow_flex_r	pro_sup_r	wrist_flex_r	wrist_dev_r	arm_flex_l	arm_add_l	arm_rot_l	elbow_flex_l	pro_sup_l	wrist_flex_l	wrist_dev_l
     13.80000000000000071054	      9.67638321447598670488	      2.19797374272920276184	   -173.31543487104354994699	      0.26920044739118870192	      0.71743573039070429598	     -0.93743781506952572613	     51.49269375032596940400	    -49.60828114288527501685	    -23.79034807234019410771	     62.39661580658118111842	      1.08902638792677897150	      4.79935565143759124140	      0.00000000000000000000	      0.00000000000000000000	     65.27865661806316666116	    -38.48842794415621426651	     -1.55229306225190866186	     64.96727710758425189397	      1.13389289158288364412	      6.72750840031493080318	      0.00000000000000000000	      0.00000000000000000000	    -74.57132299367286520919	     11.29576041461939972521	     13.99236293559158461619	    -89.86218343132723873623	   -119.87924948291593807426	    -38.28658593761276307532	     65.74390072429262943388	      9.06804936039537246018	      0.00000000000000000000	      0.00000000000000000000	     69.84024979234833097053	     -2.13682375825071613207	     50.76812041877387571276	     15.19054416021454478880	     81.41358039350214426122	      0.00000000000000000000	      0.00000000000000000000
     13.80499999999999971578	      9.67756500451260492923	      2.25285787262441328238	   -173.23302014549568639268	      0.26928865563902898428	      0.71786516245274589743	     -0.93725761064834500758	     51.26813580808575210312	    -49.60634728991514919016	    -24.05373662592961281348	     62.25801182023687374567	      1.08660729200868155786	      4.78079739235078982063	      0.00000000000000000000	      0.00000000000000000000	     65.29048640118925561637	    -38.40421253304081261604	     -1.46940116848744950495	     64.86270884728841679134	      1.13206783114763886999	      6.66352150964902101293	      0.00000000000000000000	      0.00000000000000000000	    -74.61500731489387305828	     11.40882620977349048985	     14.04192728468223982929	    -89.86207780515917420416	   -119.87902508939120593823	    -38.44998023100016837361	     65.69468749478039626410	      9.29483093789985481692	      0.00000000000000000000	      0.00000000000000000000	     69.92120289491975881901	     -1.95636604394967683618	     50.12536839834074697819	     14.91820545624916860561	     82.06085905527908153090	      0.00000000000000000000	      0.00000000000000000000
     13.81000000000000049738	      9.66158256857672981255	      2.28924699400112308112	   -173.15007444995680430111	      0.26939319518936727382	      0.71852661172759535457	     -0.93710388360004204245	     51.02815189491123959442	    -49.60293406329327581261	    -24.29727713539077882388	     62.08937523921757417611	      1.08366402843058851069	      4.66762343148705660667	      0.00000000000000000000	      0.00000000000000000000	     65.23752725218423620390	    -38.31523972018347734547	     -1.45615777565351689482	     64.71064912724645523667	      1.12941388837324563355	      6.56945948018915970579	      0.00000000000000000000	      0.00000000000000000000	    -74.70549393936605042654	     11.49525162500889230444	     14.07951800789374452449	    -89.86171746298231255423	   -119.87910221455615555897	    -38.61789687871380039041	     65.66461437112818089190	      9.29167827768510790065	      0.00000000000000000000	      0.00000000000000000000	     70.02306306566465821106	     -1.98914885994151857673	     50.39861401039596700002	     14.99649989220433710102	     81.80687449101938568674	      0.00000000000000000000	      0.00000000000000000000
     13.81499999999999950262	      9.69632526822608298289	      2.27274966889662000114	   -173.09927041293309457615	      0.26951143810451094751	      0.71919060469028339710	     -0.93699483684614259804	     50.91410750501249538047	    -49.59682710714509568106	    -24.41519321168142298006	     61.91919181523942938838	      1.08069376734985245214	      4.61625686876681040616	      0.00000000000000000000	      0.00000000000000000000	     65.13348336741877631084	    -38.20465616023523125477	     -1.52811539704345022983	     64.53282957774221983982	      1.12631035175998372999	      6.48896058629122229888	      0.00000000000000000000	      0.00000000000000000000	    -74.74167133720855815682	     11.53650612361011518203	     14.08434342392743054972	    -89.86140243836071306305	   -119.87912469064187348522	    -38.76632184680178738745	     65.58384118213248825668	      9.26115176647000737375	      0.00000000000000000000	      0.00000000000000000000	     70.16163295049277337512	     -1.98478568714320213751	     50.64395496803638963002	     14.94867094885434433138	     81.96666940196799089335	      0.00000000000000000000	      0.00000000000000000000
     13.82000000000000028422	      9.74060262150003097759	      2.25522145033644250134	   -173.05008141011387579056	      0.26965508495551598900	      0.71997463130343886117	     -0.93686820426789518823	     50.80129004901755251922	    -49.58893325077215052943	    -24.54231779501421684131	     61.71725804613894439399	      1.07716935820808701330	      4.51332736301109882504	      0.00000000000000000000	      0.00000000000000000000	     65.04763450707102379056	    -38.11291428744908671433	     -1.63360736183891264162	     64.34246908137880893719	      1.12298793433271160147	      6.42095772846301215964	      0.00000000000000000000	      0.00000000000000000000	    -74.79004385844743296730	     11.56737091570228948001	     14.07433365001906544478	    -89.86111261785140413849	   -119.87909735465099458906	    -38.90817171462571621987	     65.50518440563276101329	      9.23072108063644769516	      0.00000000000000000000	      0.00000000000000000000	     70.28646626035715883063	     -1.96127375616686649984	     50.76956976984382663431	     14.94233190306570868700	     81.82153779754011679870	      0.00000000000000000000	      0.00000000000000000000
